<svg class="animated" id="freepik_stories-source-code" xmlns="http://www.w3.org/2000/svg" viewBox="0 0 750 500" version="1.1" xmlns:xlink="http://www.w3.org/1999/xlink" xmlns:svgjs="http://svgjs.com/svgjs"><style>svg#freepik_stories-source-code:not(.animated) .animable {opacity: 0;}svg#freepik_stories-source-code.animated #freepik--Documents--inject-2 {animation: 2.9s 1 forwards cubic-bezier(.36,-0.01,.5,1.38) fadeIn,1.5s Infinite  linear floating;animation-delay: 0.0s,1.9s;}svg#freepik_stories-source-code.animated #freepik--Plant--inject-2 {animation: 2.6s 1 forwards cubic-bezier(.36,-0.01,.5,1.38) slideRight;animation-delay: 0s;}svg#freepik_stories-source-code.animated #freepik--Device--inject-2 {animation: 1s 1 forwards cubic-bezier(.36,-0.01,.5,1.38) slideDown;animation-delay: 0s;}            @keyframes fadeIn {                0% {                    opacity: 0;                }                100% {                    opacity: 1;                }            }                    @keyframes floating {                0% {                    opacity: 1;                    transform: translateY(0px);                }                50% {                    transform: translateY(-10px);                }                100% {                    opacity: 1;                    transform: translateY(0px);                }            }                    @keyframes slideRight {                0% {                    opacity: 0;                    transform: translateX(30px);                }                100% {                    opacity: 1;                    transform: translateX(0);                }            }                    @keyframes slideDown {                0% {                    opacity: 0;                    transform: translateY(-30px);                }                100% {                    opacity: 1;                    transform: translateY(0);                }            }        .animator-hidden { display: none; }</style><g id="freepik--Floor--inject-2" class="animable" style="transform-origin: 369.035px 465.15px;"><path d="M702,465.15c0,.14-149.08.26-332.93.26s-333-.12-333-.26,149.05-.26,333-.26S702,465,702,465.15Z" style="fill: rgb(38, 50, 56); transform-origin: 369.035px 465.15px;" id="el3rgnt9z3fca" class="animable"></path></g><g id="freepik--Documents--inject-2" class="animable" style="transform-origin: 369.145px 161.553px;"><path d="M129.3,249.93,73,262.2a7.21,7.21,0,0,1-8.58-5.51l-17-77.9A7.22,7.22,0,0,1,53,170.21l35.7-7.78,33.84,22.46,12.3,56.47A7.19,7.19,0,0,1,129.3,249.93Z" style="fill: rgb(186, 104, 200); transform-origin: 91.1327px 212.398px;" id="eltwtbecvv1g" class="animable"></path><g id="elmkgeh44phak"><g style="opacity: 0.2; transform-origin: 98.1px 242.11px;" class="animable"><g id="eltsuwrazbdub"><path d="M62.1,227.83h72a0,0,0,0,1,0,0v20.35a8.21,8.21,0,0,1-8.21,8.21H70.19a8.09,8.09,0,0,1-8.09-8.09V227.83a0,0,0,0,1,0,0Z" class="animable" style="transform-origin: 98.1px 242.11px; transform: rotate(-12.3deg);"></path></g></g></g><path d="M88.75,248.39l1.31-2.51a3.24,3.24,0,0,0,2.88,1c1.28-.28,1.78-1.19,1.45-2.71L93,237.58l-4.84,1.06-.56-2.56,8-1.75,1.94,8.94c.75,3.4-.6,5.44-3.85,6.15A5.64,5.64,0,0,1,88.75,248.39Z" style="fill: rgb(250, 250, 250); transform-origin: 92.671px 241.969px;" id="elrnkst2goy9i" class="animable"></path><path d="M100.27,246.71l.54-2.43a7.48,7.48,0,0,0,3.9.22c1.42-.31,1.87-.8,1.74-1.39-.38-1.73-6.38,1.44-7.31-2.79-.43-2,1.07-3.82,4.16-4.5a9,9,0,0,1,4.27,0l-.55,2.41a6.25,6.25,0,0,0-3.22-.12c-1.38.3-1.87.86-1.75,1.41.39,1.81,6.41-1.34,7.32,2.84.42,2-1.1,3.76-4.27,4.45A9.34,9.34,0,0,1,100.27,246.71Z" style="fill: rgb(250, 250, 250); transform-origin: 104.253px 241.321px;" id="el9g886r8q2h" class="animable"></path><path d="M71.6,217.93l1.64-3.07a6.8,6.8,0,0,0,6.25,1.94c3-.65,4.16-2.82,3.38-6.39l-3.25-14.95L70,197.55l-.72-3.31,13.39-2.91L86.6,209.4c1.29,5.93-1,9.49-6.4,10.68A9.55,9.55,0,0,1,71.6,217.93Z" style="fill: rgb(250, 250, 250); transform-origin: 78.1157px 205.839px;" id="elsucbfkfmy7s" class="animable"></path><path d="M92.68,214.8l.9-3.22a13.21,13.21,0,0,0,7.53.55c3.38-.74,4.57-2.07,4.19-3.78-1-4.53-12.87,2.17-14.62-5.86-.79-3.61,1.91-6.75,7.09-7.88a15,15,0,0,1,7.74.22l-.93,3.24a10.72,10.72,0,0,0-6.17-.33c-3.2.69-4.5,2.21-4.15,3.81,1,4.76,13-1.91,14.68,5.93.8,3.65-2,6.7-7.41,7.87C98.18,216.08,94.65,215.77,92.68,214.8Z" style="fill: rgb(250, 250, 250); transform-origin: 99.8096px 204.979px;" id="elgqotyokyo2" class="animable"></path><g id="ellqr170a9oms"><g style="opacity: 0.3; transform-origin: 105.595px 176.035px;" class="animable"><path d="M88.66,162.43l4.78,21.93a6.7,6.7,0,0,0,8,5.12l21.09-4.59Z" style="fill: rgb(255, 255, 255); transform-origin: 105.595px 176.035px;" id="elma96rpnujll" class="animable"></path></g></g><g id="el853agu55g25"><g style="opacity: 0.2; transform-origin: 108.96px 188.46px;" class="animable"><path d="M94.14,186.22s.88,5.38,7.32,5.81h.73c2.86-.11,21.68-.83,21.59-1.25s-1.28-5.89-1.28-5.89l-21.09,4.59S96.11,190.45,94.14,186.22Z" id="elg5h5q6vaxmi" class="animable" style="transform-origin: 108.96px 188.46px;"></path></g></g><path d="M674.23,172.41l-64.41-7.74a8.13,8.13,0,0,1-7.09-9l10.72-89.15a8.12,8.12,0,0,1,9-7.09l40.85,4.91L691,100.7l-7.77,64.62A8.12,8.12,0,0,1,674.23,172.41Z" style="fill: rgb(186, 104, 200); transform-origin: 646.838px 115.92px;" id="elkm94xyss5x" class="animable"></path><g id="ell6nkabk0b7s"><g style="opacity: 0.2; transform-origin: 643.945px 152.555px;" class="animable"><g id="eljmdeu4wp7v"><path d="M603.39,136.48H684.5a0,0,0,0,1,0,0v23.15a9,9,0,0,1-9,9H612.55a9.15,9.15,0,0,1-9.15-9.15v-23a0,0,0,0,1,0,0Z" class="animable" style="transform-origin: 643.945px 152.555px; transform: rotate(6.86deg);"></path></g></g></g><g id="elmyplz5ak02"><g style="opacity: 0.2; transform-origin: 675.638px 82.505px;" class="animable"><path d="M663.33,64.31l-3,25.09a7.55,7.55,0,0,0,6.59,8.4L691,100.7Z" style="fill: rgb(255, 255, 255); transform-origin: 675.638px 82.505px;" id="el5u24umv1aio" class="animable"></path></g></g><g id="el8263z1ybdgi"><g style="opacity: 0.2; transform-origin: 675.678px 99.5577px;" class="animable"><path d="M660.38,91.64s-1,6,5.63,8.88a6.55,6.55,0,0,0,.78.28c3.08.94,23.37,7.12,23.43,6.65s.81-6.75.81-6.75L666.9,97.8S660.9,96.87,660.38,91.64Z" id="ellx7adr2lxn" class="animable" style="transform-origin: 675.678px 99.5577px;"></path></g></g><path d="M627,148.45c.46-3.78,3.68-6.13,7.58-5.66a6.51,6.51,0,0,1,4.89,2.84l-2.07,1.49a4.06,4.06,0,0,0-3-1.85,4,4,0,0,0-1,8,4,4,0,0,0,3.33-1.11l1.65,1.94A6.93,6.93,0,0,1,627,148.45Z" style="fill: rgb(250, 250, 250); transform-origin: 633.231px 149.228px;" id="elgwzrr5ohiog" class="animable"></path><path d="M639.18,155l1.25-2.06a7.44,7.44,0,0,0,4,1.8c1.72.21,2.49-.28,2.58-1.05.28-2.34-7.19-1.61-6.63-6.26.25-2.13,2.18-3.69,5.74-3.27a8.43,8.43,0,0,1,4.22,1.64l-1.16,2.09a7.08,7.08,0,0,0-3.35-1.4c-1.72-.21-2.46.36-2.56,1.14-.27,2.31,7.2,1.59,6.65,6.19-.26,2.09-2.21,3.68-5.78,3.24A9,9,0,0,1,639.18,155Z" style="fill: rgb(250, 250, 250); transform-origin: 644.76px 150.613px;" id="el5prciuadtnr" class="animable"></path><path d="M650.59,156.39l1.25-2.07a7.36,7.36,0,0,0,4,1.8c1.72.21,2.49-.28,2.58-1.05.28-2.34-7.19-1.61-6.63-6.26.25-2.13,2.18-3.69,5.74-3.26a8.33,8.33,0,0,1,4.22,1.63l-1.16,2.09a7.15,7.15,0,0,0-3.36-1.4c-1.71-.21-2.45.36-2.55,1.14-.27,2.31,7.2,1.6,6.65,6.19-.26,2.1-2.21,3.68-5.78,3.25A9,9,0,0,1,650.59,156.39Z" style="fill: rgb(250, 250, 250); transform-origin: 656.17px 152px;" id="elekluh4tcebv" class="animable"></path><path d="M636,108.41c1.27.56,1.78,1.47,1.54,3.45l-.56,4.6a1.92,1.92,0,0,0,1.85,2.39l.52.06-.43,3.51-1.66-.2c-3.6-.44-5.22-2.5-4.82-5.81l.62-5.2a1.19,1.19,0,0,0-1.1-1.51l-.95-.11.42-3.51,1,.11a1.19,1.19,0,0,0,1.43-1.2l.63-5.21c.39-3.31,2.46-4.92,6.05-4.49l1.67.2L641.69,99l-.52-.06a1.9,1.9,0,0,0-2.35,1.87l-.56,4.61C638,107.4,637.32,108.16,636,108.41Z" style="fill: rgb(250, 250, 250); transform-origin: 636.61px 108.821px;" id="elcsz1flrkaod" class="animable"></path><path d="M667.17,110.38l-.42,3.51-1-.11c-.77-.1-1.31.28-1.42,1.2l-.63,5.2c-.4,3.31-2.46,4.93-6.06,4.5l-1.67-.2.43-3.51.51.06a1.9,1.9,0,0,0,2.36-1.87l.55-4.61c.24-2,1-2.74,2.32-3-1.28-.56-1.78-1.47-1.54-3.45l.55-4.61a1.9,1.9,0,0,0-1.84-2.38l-.52-.06.42-3.51,1.67.2c3.6.43,5.22,2.5,4.82,5.8l-.63,5.21a1.2,1.2,0,0,0,1.1,1.51Z" style="fill: rgb(250, 250, 250); transform-origin: 661.57px 111.144px;" id="elo4g55jbq01" class="animable"></path></g><g id="freepik--Plant--inject-2" class="animable" style="transform-origin: 665.62px 388.86px;"><path d="M648.25,421.78c-10.88-5.89-23.12-16.6-27.88-28.76a64.83,64.83,0,0,1,27.88,28.76" style="fill: rgb(38, 50, 56); transform-origin: 634.31px 407.4px;" id="elx0qlmtnx0f" class="animable"></path><path d="M647.54,403.53c-10.88-5.88-23.12-16.59-27.88-28.76a64.83,64.83,0,0,1,27.88,28.76" style="fill: rgb(38, 50, 56); transform-origin: 633.6px 389.15px;" id="eljt7phhwo3z" class="animable"></path><path d="M645.92,385.69C635,379.81,622.79,369.1,618,356.93a64.91,64.91,0,0,1,27.89,28.76" style="fill: rgb(38, 50, 56); transform-origin: 631.96px 371.31px;" id="elu8ke4kivhj" class="animable"></path><path d="M643.54,367c-10.1-7.36-21-19.7-24.25-32.43A67,67,0,0,1,643.54,367" style="fill: rgb(38, 50, 56); transform-origin: 631.415px 350.785px;" id="elj4w8qs3a7t" class="animable"></path><path d="M640.47,352.5c-6.84-10.93-12.67-26.79-11.34-39.93a72,72,0,0,1,11.34,39.93" style="fill: rgb(38, 50, 56); transform-origin: 634.709px 332.535px;" id="elma17i8b7qt" class="animable"></path><path d="M642,359.38c2.88-13.64,9.88-30.47,20-39.95a84.55,84.55,0,0,1-20,39.95" style="fill: rgb(38, 50, 56); transform-origin: 652px 339.405px;" id="el1c95k59nh9c" class="animable"></path><path d="M644.26,374.81c4.11-13.95,12.79-30.87,24.07-39.87a87.82,87.82,0,0,1-24.07,39.87" style="fill: rgb(38, 50, 56); transform-origin: 656.295px 354.875px;" id="el422zn4q8914" class="animable"></path><path d="M646.73,393.6c4.12-14,12.8-30.87,24.08-39.87a87.92,87.92,0,0,1-24.08,39.87" style="fill: rgb(38, 50, 56); transform-origin: 658.77px 373.665px;" id="elt4bcblu27s" class="animable"></path><path d="M648,416.5c4.12-13.95,12.79-30.87,24.07-39.87A87.82,87.82,0,0,1,648,416.5" style="fill: rgb(38, 50, 56); transform-origin: 660.035px 396.565px;" id="el10mlb0g5dasi" class="animable"></path><path d="M640.19,349.75a.8.8,0,0,1,.07.22l.15.66c.14.61.32,1.46.56,2.53.48,2.2,1.11,5.4,1.82,9.36s1.48,8.7,2.23,14,1.42,11.09,2,17.21.93,12,1.18,17.29.34,10.12.36,14.14,0,7.29-.09,9.54c0,1.1-.06,2-.08,2.59l0,.68a.72.72,0,0,1,0,.23s0-.08,0-.23,0-.4,0-.68v-2.59c0-2.25,0-5.51-.06-9.53s-.2-8.82-.45-14.13-.66-11.15-1.22-17.27-1.25-11.92-1.95-17.2-1.45-10-2.13-14-1.25-7.18-1.68-9.39c-.2-1.08-.36-1.93-.47-2.55-.05-.27-.09-.49-.11-.66A.67.67,0,0,1,640.19,349.75Z" style="fill: rgb(38, 50, 56); transform-origin: 644.379px 393.975px;" id="el07q11oai3qp4" class="animable"></path><path d="M653,426.49c-5.06-10.61-8.75-25.53-6.26-37.18A65.87,65.87,0,0,1,653,426.49" style="fill: rgb(69, 90, 100); transform-origin: 649.722px 407.9px;" id="elhvxocqdvjc" class="animable"></path><path d="M661.46,412.75c-5.06-10.61-8.75-25.53-6.26-37.18a65.85,65.85,0,0,1,6.26,37.18" style="fill: rgb(69, 90, 100); transform-origin: 658.182px 394.16px;" id="elpzctsid2ic" class="animable"></path><path d="M669,398.78c-5.07-10.61-8.75-25.53-6.26-37.18A65.94,65.94,0,0,1,669,398.78" style="fill: rgb(69, 90, 100); transform-origin: 665.72px 380.19px;" id="elqorhvd2by7c" class="animable"></path><path d="M676.47,383.71c-3.77-11.23-5.66-26.54-1.81-37.75a66.4,66.4,0,0,1,1.81,37.75" style="fill: rgb(69, 90, 100); transform-origin: 675.465px 364.835px;" id="ela5mtx20zec9" class="animable"></path><path d="M681.32,371.37c.37-11.95,3.88-26.92,11.3-35.74a64.85,64.85,0,0,1-11.3,35.74" style="fill: rgb(69, 90, 100); transform-origin: 686.97px 353.5px;" id="elz30zt9tbcs9" class="animable"></path><path d="M679.07,377.3c8.79-8.3,22.16-16.53,34.17-17.61a66.21,66.21,0,0,1-34.17,17.61" style="fill: rgb(69, 90, 100); transform-origin: 696.155px 368.495px;" id="el63j90qmpgbd" class="animable"></path><path d="M673.15,389.86c9.85-7.8,24.48-15.13,37.13-15.16a68.82,68.82,0,0,1-37.13,15.16" style="fill: rgb(69, 90, 100); transform-origin: 691.715px 382.28px;" id="ele6to11fh0bo" class="animable"></path><path d="M665.74,405c9.85-7.81,24.48-15.14,37.14-15.17A68.89,68.89,0,0,1,665.74,405" style="fill: rgb(69, 90, 100); transform-origin: 684.31px 397.415px;" id="elvfvy0vt5tp" class="animable"></path><path d="M655.42,422.48c9.85-7.81,24.49-15.14,37.14-15.16a69,69,0,0,1-37.14,15.16" style="fill: rgb(69, 90, 100); transform-origin: 673.99px 414.9px;" id="elhqwz2q4gomv" class="animable"></path><path d="M682.47,369.2l-.06.2-.2.56c-.21.53-.48,1.24-.83,2.15-.72,1.87-1.81,4.54-3.22,7.83-2.81,6.57-7,15.53-12.15,25.13-2.6,4.8-5.19,9.3-7.63,13.35s-4.73,7.64-6.71,10.61-3.62,5.36-4.79,7l-1.34,1.87-.36.47a1,1,0,0,1-.14.16.9.9,0,0,1,.1-.18l.32-.51c.32-.46.74-1.1,1.28-1.91,1.13-1.65,2.72-4.05,4.66-7.05s4.2-6.6,6.63-10.65,5-8.56,7.59-13.35c5.16-9.59,9.37-18.52,12.25-25.05,1.44-3.27,2.59-5.92,3.35-7.77l.9-2.11.25-.55A.76.76,0,0,1,682.47,369.2Z" style="fill: rgb(38, 50, 56); transform-origin: 663.755px 403.865px;" id="elekmnf4ef62" class="animable"></path><polygon points="677.17 427.77 626.82 427.77 626.82 437.48 632 437.48 636.35 465.15 667.47 465.15 671.95 437.48 677.17 437.48 677.17 427.77" style="fill: rgb(186, 104, 200); transform-origin: 651.995px 446.46px;" id="elan6qdnv5fr" class="animable"></polygon><path d="M677.17,437.27c0-.13-11.19-.23-25-.23s-25,.1-25,.23,11.18.24,25,.24S677.17,437.4,677.17,437.27Z" style="fill: rgb(38, 50, 56); transform-origin: 652.17px 437.275px;" id="eldhnylnxmcy" class="animable"></path></g><g id="freepik--Device--inject-2" class="animable" style="transform-origin: 371.787px 291.044px;"><path d="M602.83,462.66h-456A27.7,27.7,0,0,1,119.13,435V137.76A20.88,20.88,0,0,1,140,116.88H610.66a19.87,19.87,0,0,1,19.87,19.87V435A27.7,27.7,0,0,1,602.83,462.66Z" style="fill: rgb(235, 235, 235); transform-origin: 374.83px 289.77px;" id="elvwldiw9h1sr" class="animable"></path><path d="M602.83,462.66l1.09-.07a22.8,22.8,0,0,0,3.21-.33,27.46,27.46,0,0,0,11.61-4.72,27,27,0,0,0,6.57-6.55,27.66,27.66,0,0,0,4.51-10.21c.2-1,.33-2,.49-3.06s.13-2.13.13-3.22v-6.81q0-7,0-15c0-42.33,0-103.59-.09-179.28q0-28.38,0-59.4,0-15.5,0-31.6v-4a33.61,33.61,0,0,0-.16-4,19.41,19.41,0,0,0-2.58-7.58,19.75,19.75,0,0,0-12.91-9.28c-2.69-.6-5.5-.36-8.31-.41H472.66l-325.58,0h-5.41c-.9,0-1.8,0-2.69,0a18.22,18.22,0,0,0-2.65.3,20.54,20.54,0,0,0-15.6,13,21.57,21.57,0,0,0-1.23,5.13c-.13,1.75-.12,3.54-.11,5.33v42.48q0,42.19,0,83.08c0,54.46,0,107,0,157v9.35c0,.78,0,1.56,0,2.33l.12,2.3a27.66,27.66,0,0,0,.83,4.52,26.92,26.92,0,0,0,10,14.83,27.07,27.07,0,0,0,8,4.17,29.87,29.87,0,0,0,8.84,1.36H234l123.81,0,245,.19-245,.18-123.81,0H147.15a30.48,30.48,0,0,1-9-1.38,27.52,27.52,0,0,1-8.1-4.24,28.55,28.55,0,0,1-6.37-6.65,28,28,0,0,1-3.83-8.44,28.66,28.66,0,0,1-.85-4.6l-.11-2.34c0-.78,0-1.55,0-2.33v-9.35c0-50.05,0-102.58,0-157V141c0-1.79,0-3.57.11-5.38a21.59,21.59,0,0,1,1.26-5.26,21,21,0,0,1,16-13.34,17.7,17.7,0,0,1,2.72-.31c.91-.06,1.81,0,2.71,0h5.41l325.58,0h133.7c2.79.06,5.63-.19,8.4.43a20.12,20.12,0,0,1,15.82,17.23,34.79,34.79,0,0,1,.16,4.07v4q0,16.11,0,31.6,0,31,0,59.4c0,75.69-.06,137-.08,179.28q0,7.94,0,15c0,2.34,0,4.61,0,6.81,0,1.09-.1,2.17-.14,3.23s-.29,2.08-.49,3.08a28,28,0,0,1-4.56,10.26,27.61,27.61,0,0,1-18.28,11.24,20.59,20.59,0,0,1-3.22.3Z" style="fill: rgb(38, 50, 56); transform-origin: 374.828px 289.687px;" id="elgg2g77u6sri" class="animable"></path><path d="M620.78,465.15H122.86a28.07,28.07,0,0,1-28.07-28.07H648.85A28.07,28.07,0,0,1,620.78,465.15Z" style="fill: rgb(235, 235, 235); transform-origin: 371.82px 451.115px;" id="elktkqof2puo" class="animable"></path><path d="M620.78,465.15l.74,0,2.2-.13a30.15,30.15,0,0,0,8.3-2.23,28.41,28.41,0,0,0,5.46-3.22,26.86,26.86,0,0,0,5.44-5.35,26.58,26.58,0,0,0,4.24-7.82c.12-.38.29-.75.39-1.14l.3-1.18c.11-.4.21-.8.31-1.21s.13-.83.2-1.24a18,18,0,0,0,.29-2.57c0-.43.05-.87.07-1.31l0-.34v-.25c0-.06.17.16,0,.07h-.67L526,437.27l-403.07.07H94.79l.26-.26a28.57,28.57,0,0,0,3.45,13.41,27.91,27.91,0,0,0,1.88,2.92l1.05,1.39,1.17,1.29.58.64.64.59,1.28,1.16c.46.36.93.7,1.39,1a12.37,12.37,0,0,0,1.42,1,27.48,27.48,0,0,0,13,4.28c2.27.17,4.6.07,6.9.1H291L463.1,465l115.49.08,31.3.05,8.13,0,2.76,0-2.76,0-8.13,0-31.3.05-115.49.08L291,465.39H127.77c-2.31,0-4.6.07-6.94-.1a27.9,27.9,0,0,1-13.2-4.37,11.69,11.69,0,0,1-1.45-1c-.47-.35-1-.69-1.41-1.06l-1.3-1.19-.66-.59-.59-.66L101,455.13,100,453.72a32.15,32.15,0,0,1-1.92-3,29.12,29.12,0,0,1-3.51-13.66l.26-.26h28.09L526,436.9l122.18.08h.67c-.06-.09.19.12.15.13v.26l0,.33c0,.45,0,.89-.07,1.33a18.36,18.36,0,0,1-.3,2.58c-.07.42-.12.84-.2,1.25l-.32,1.21c-.1.4-.2.8-.31,1.19s-.26.77-.39,1.15a26.59,26.59,0,0,1-4.29,7.85,26.87,26.87,0,0,1-5.48,5.37,28.26,28.26,0,0,1-5.5,3.2,29.73,29.73,0,0,1-8.33,2.19C621.78,465.12,620.78,465.15,620.78,465.15Z" style="fill: rgb(38, 50, 56); transform-origin: 371.787px 451.102px;" id="el4l8phlou24f" class="animable"></path><polygon points="324.42 437.08 331.29 448.26 428.04 448.26 434.42 437.08 324.42 437.08" style="fill: rgb(255, 255, 255); transform-origin: 379.42px 442.67px;" id="ellm9i8uo20b" class="animable"></polygon><path d="M153.32,132.52H507.08a0,0,0,0,1,0,0v288a0,0,0,0,1,0,0H156.45a19.95,19.95,0,0,1-19.95-19.95V149.34A16.82,16.82,0,0,1,153.32,132.52Z" style="fill: rgb(69, 90, 100); transform-origin: 321.79px 276.52px;" id="el2wz7dus849v" class="animable"></path><path d="M217.38,132.52H142.69a6.76,6.76,0,0,0-6.76,6.76V411.36a9.18,9.18,0,0,0,9.17,9.17h69.41a2.88,2.88,0,0,0,2.87-2.88V132.52" style="fill: rgb(38, 50, 56); transform-origin: 176.655px 276.525px;" id="elcju9fml6ytd" class="animable"></path><path d="M163.07,153.85a5.07,5.07,0,1,1-5.07-5.06A5.06,5.06,0,0,1,163.07,153.85Z" style="fill: rgb(69, 90, 100); transform-origin: 158px 153.86px;" id="el5yb758n9mhf" class="animable"></path><circle cx="171.64" cy="153.85" r="5.06" style="fill: rgb(69, 90, 100); transform-origin: 171.64px 153.85px;" id="eln8wehkfsvr" class="animable"></circle><circle cx="186.23" cy="153.85" r="5.06" style="fill: rgb(69, 90, 100); transform-origin: 186.23px 153.85px;" id="elcwbb2f6chh" class="animable"></circle><path d="M344.55,157.62H243.08a5,5,0,0,1-5-5h0a4.94,4.94,0,0,1,5-4.95H344.55a4.94,4.94,0,0,1,4.95,4.95h0A5,5,0,0,1,344.55,157.62Z" style="fill: rgb(235, 235, 235); transform-origin: 293.79px 152.645px;" id="elgg52nnl05y8" class="animable"></path><path d="M195.29,222.84H160.54a3.57,3.57,0,0,1-3.57-3.57h0a3.57,3.57,0,0,1,3.57-3.57h34.75a3.57,3.57,0,0,1,3.57,3.57h0A3.57,3.57,0,0,1,195.29,222.84Z" style="fill: rgb(69, 90, 100); transform-origin: 177.915px 219.27px;" id="el3lhpq3ozwto" class="animable"></path><path d="M288.64,186H255.73a3.57,3.57,0,0,1-3.57-3.58h0a3.57,3.57,0,0,1,3.57-3.57h32.91a3.57,3.57,0,0,1,3.57,3.57h0A3.57,3.57,0,0,1,288.64,186Z" style="fill: rgb(38, 50, 56); transform-origin: 272.185px 182.425px;" id="eljc869uphc3l" class="animable"></path><path d="M288.64,204.65H255.73a3.57,3.57,0,0,1-3.57-3.57h0a3.57,3.57,0,0,1,3.57-3.57h32.91a3.57,3.57,0,0,1,3.57,3.57h0A3.57,3.57,0,0,1,288.64,204.65Z" style="fill: rgb(38, 50, 56); transform-origin: 272.185px 201.08px;" id="eltpor1mnlyco" class="animable"></path><g id="eluro9m9srx9"><g style="opacity: 0.2; transform-origin: 272.185px 220.43px;" class="animable"><path d="M288.64,224H255.73a3.57,3.57,0,0,1-3.57-3.57h0a3.57,3.57,0,0,1,3.57-3.57h32.91a3.57,3.57,0,0,1,3.57,3.57h0A3.57,3.57,0,0,1,288.64,224Z" id="eluvqgma0cnx" class="animable" style="transform-origin: 272.185px 220.43px;"></path></g></g><path d="M274.6,261.31H255.73a3.57,3.57,0,0,1-3.57-3.57h0a3.57,3.57,0,0,1,3.57-3.57H274.6a3.56,3.56,0,0,1,3.57,3.57h0A3.57,3.57,0,0,1,274.6,261.31Z" style="fill: rgb(38, 50, 56); transform-origin: 265.165px 257.74px;" id="elgf303fgrit" class="animable"></path><path d="M274.6,280.67H255.73a3.57,3.57,0,0,1-3.57-3.58h0a3.57,3.57,0,0,1,3.57-3.57H274.6a3.57,3.57,0,0,1,3.57,3.57h0A3.57,3.57,0,0,1,274.6,280.67Z" style="fill: rgb(38, 50, 56); transform-origin: 265.165px 277.095px;" id="elmojvse4oe2f" class="animable"></path><g id="elw2u7aschxw"><g style="opacity: 0.2; transform-origin: 313.39px 277.095px;" class="animable"><path d="M330.69,280.67h-34.6a3.57,3.57,0,0,1-3.57-3.58h0a3.57,3.57,0,0,1,3.57-3.57h34.6a3.57,3.57,0,0,1,3.57,3.57h0A3.57,3.57,0,0,1,330.69,280.67Z" id="elblelcncwlro" class="animable" style="transform-origin: 313.39px 277.095px;"></path></g></g><path d="M311.12,297.88H276.51a3.57,3.57,0,0,1-3.57-3.57h0a3.57,3.57,0,0,1,3.57-3.57h34.61a3.57,3.57,0,0,1,3.57,3.57h0A3.57,3.57,0,0,1,311.12,297.88Z" style="fill: rgb(38, 50, 56); transform-origin: 293.815px 294.31px;" id="eljy0hscvk6oo" class="animable"></path><rect x="292.58" y="310.37" width="28.64" height="7.14" rx="3.57" style="fill: rgb(186, 104, 200); transform-origin: 306.9px 313.94px;" id="elzkiczh600n" class="animable"></rect><path d="M317.65,356h-21.5a3.57,3.57,0,0,1-3.57-3.58h0a3.57,3.57,0,0,1,3.57-3.57h21.5a3.57,3.57,0,0,1,3.57,3.57h0A3.57,3.57,0,0,1,317.65,356Z" style="fill: rgb(186, 104, 200); transform-origin: 306.9px 352.425px;" id="elkqay2jkcz1d" class="animable"></path><path d="M317.65,396.64h-21.5a3.57,3.57,0,0,1-3.57-3.57h0a3.57,3.57,0,0,1,3.57-3.57h21.5a3.57,3.57,0,0,1,3.57,3.57h0A3.57,3.57,0,0,1,317.65,396.64Z" style="fill: rgb(186, 104, 200); transform-origin: 306.9px 393.07px;" id="el3igoqy7ctu4" class="animable"></path><g id="elfj0gi5sgsl"><g style="opacity: 0.2; transform-origin: 351.66px 393.07px;" class="animable"><path d="M370.51,396.64h-37.7a3.57,3.57,0,0,1-3.57-3.57h0a3.57,3.57,0,0,1,3.57-3.57h37.7a3.57,3.57,0,0,1,3.57,3.57h0A3.57,3.57,0,0,1,370.51,396.64Z" id="elqfxhmdujm2" class="animable" style="transform-origin: 351.66px 393.07px;"></path></g></g><g id="elmysxnfmrf3c"><g style="opacity: 0.2; transform-origin: 394.175px 393.07px;" class="animable"><path d="M396.89,396.64h-5.43a3.57,3.57,0,0,1-3.57-3.57h0a3.57,3.57,0,0,1,3.57-3.57h5.43a3.57,3.57,0,0,1,3.57,3.57h0A3.57,3.57,0,0,1,396.89,396.64Z" id="elkmfjce6l18" class="animable" style="transform-origin: 394.175px 393.07px;"></path></g></g><g id="el3ktjqdign8k"><g style="opacity: 0.2; transform-origin: 352.32px 352.425px;" class="animable"><path d="M368.25,356H336.39a3.57,3.57,0,0,1-3.57-3.58h0a3.57,3.57,0,0,1,3.57-3.57h31.86a3.57,3.57,0,0,1,3.57,3.57h0A3.57,3.57,0,0,1,368.25,356Z" id="elg6t8i9kyiwv" class="animable" style="transform-origin: 352.32px 352.425px;"></path></g></g><g id="el717u7d806b4"><g style="opacity: 0.2; transform-origin: 387.25px 370.27px;" class="animable"><path d="M438.11,373.84H336.39a3.57,3.57,0,0,1-3.57-3.57h0a3.57,3.57,0,0,1,3.57-3.57H438.11a3.57,3.57,0,0,1,3.57,3.57h0A3.57,3.57,0,0,1,438.11,373.84Z" id="el2v588j33gn8" class="animable" style="transform-origin: 387.25px 370.27px;"></path></g></g><g id="el4xtbbj4jjkp"><g style="opacity: 0.2; transform-origin: 417.39px 352.425px;" class="animable"><path d="M449.85,356H384.92a3.57,3.57,0,0,1-3.57-3.58h0a3.57,3.57,0,0,1,3.57-3.57h64.93a3.57,3.57,0,0,1,3.58,3.57h0A3.58,3.58,0,0,1,449.85,356Z" id="elnb7xtrr7msf" class="animable" style="transform-origin: 417.39px 352.425px;"></path></g></g><g id="elp72vjoebbbs"><g style="opacity: 0.2; transform-origin: 347.605px 313.94px;" class="animable"><rect x="330.58" y="310.37" width="34.05" height="7.14" rx="3.57" id="elgj8xlyap446" class="animable" style="transform-origin: 347.605px 313.94px;"></rect></g></g><g id="el4iipqhyvigg"><g style="opacity: 0.2; transform-origin: 380.995px 313.94px;" class="animable"><rect x="374.08" y="310.37" width="13.83" height="7.14" rx="3.57" id="ele4jjl9h3o3j" class="animable" style="transform-origin: 380.995px 313.94px;"></rect></g></g><g id="el8xfqy7rcnzc"><g style="opacity: 0.2; transform-origin: 418.81px 313.94px;" class="animable"><rect x="398.42" y="310.37" width="40.78" height="7.14" rx="3.57" id="elhokgpxnobi6" class="animable" style="transform-origin: 418.81px 313.94px;"></rect></g></g><path d="M334.56,297.88h-7.71a3.57,3.57,0,0,1-3.57-3.57h0a3.57,3.57,0,0,1,3.57-3.57h7.71a3.57,3.57,0,0,1,3.57,3.57h0A3.57,3.57,0,0,1,334.56,297.88Z" style="fill: rgb(38, 50, 56); transform-origin: 330.705px 294.31px;" id="elxqjg9hbucp8" class="animable"></path><g id="elo7muxxdh9qh"><g style="opacity: 0.2; transform-origin: 375.335px 294.31px;" class="animable"><path d="M399.88,297.88H350.79a3.57,3.57,0,0,1-3.57-3.57h0a3.57,3.57,0,0,1,3.57-3.57h49.09a3.57,3.57,0,0,1,3.57,3.57h0A3.57,3.57,0,0,1,399.88,297.88Z" id="elpodpsa7grwr" class="animable" style="transform-origin: 375.335px 294.31px;"></path></g></g><g id="elz7uk0xx19af"><g style="opacity: 0.2; transform-origin: 324.915px 182.425px;" class="animable"><path d="M341.37,186H308.46a3.57,3.57,0,0,1-3.57-3.58h0a3.57,3.57,0,0,1,3.57-3.57h32.91a3.57,3.57,0,0,1,3.57,3.57h0A3.57,3.57,0,0,1,341.37,186Z" id="eldtro1egcimi" class="animable" style="transform-origin: 324.915px 182.425px;"></path></g></g><g id="elnd98c4mfvg"><g style="opacity: 0.2; transform-origin: 346.115px 201.08px;" class="animable"><path d="M383.77,204.65H308.46a3.57,3.57,0,0,1-3.57-3.57h0a3.56,3.56,0,0,1,3.57-3.57h75.31a3.57,3.57,0,0,1,3.57,3.57h0A3.57,3.57,0,0,1,383.77,204.65Z" id="elxrsbsh982z" class="animable" style="transform-origin: 346.115px 201.08px;"></path></g></g><g id="el4bsis6l8od9"><g style="opacity: 0.2; transform-origin: 386.66px 220.43px;" class="animable"><path d="M464.86,224H308.46a3.57,3.57,0,0,1-3.57-3.57h0a3.57,3.57,0,0,1,3.57-3.57h156.4a3.57,3.57,0,0,1,3.57,3.57h0A3.57,3.57,0,0,1,464.86,224Z" id="elgyhpagovlld" class="animable" style="transform-origin: 386.66px 220.43px;"></path></g></g><g id="el9eto3igr05p"><g style="opacity: 0.2; transform-origin: 345.33px 234px;" class="animable"><path d="M382.2,237.57H308.46a3.57,3.57,0,0,1-3.57-3.57h0a3.57,3.57,0,0,1,3.57-3.57H382.2a3.57,3.57,0,0,1,3.57,3.57h0A3.57,3.57,0,0,1,382.2,237.57Z" id="el4kfjz421vlc" class="animable" style="transform-origin: 345.33px 234px;"></path></g></g><g id="elqfep9qn6tkj"><g style="opacity: 0.2; transform-origin: 330.245px 257.74px;" class="animable"><path d="M367.12,261.31H293.37a3.57,3.57,0,0,1-3.57-3.57h0a3.57,3.57,0,0,1,3.57-3.57h73.75a3.57,3.57,0,0,1,3.57,3.57h0A3.57,3.57,0,0,1,367.12,261.31Z" id="el14jodsw9glw" class="animable" style="transform-origin: 330.245px 257.74px;"></path></g></g><g id="eleadq94eu72f"><g style="opacity: 0.2; transform-origin: 396.04px 257.74px;" class="animable"><path d="M408.4,261.31H383.68a3.57,3.57,0,0,1-3.57-3.57h0a3.57,3.57,0,0,1,3.57-3.57H408.4a3.57,3.57,0,0,1,3.57,3.57h0A3.57,3.57,0,0,1,408.4,261.31Z" id="elqkrzb8fs3h" class="animable" style="transform-origin: 396.04px 257.74px;"></path></g></g><path d="M471.6,261.19H424.91a3.57,3.57,0,0,1-3.57-3.57h0a3.57,3.57,0,0,1,3.57-3.57H471.6a3.57,3.57,0,0,1,3.57,3.57h0A3.57,3.57,0,0,1,471.6,261.19Z" style="fill: rgb(38, 50, 56); transform-origin: 448.255px 257.62px;" id="el0yce6d2awahj" class="animable"></path><path d="M180.24,242.09h-19.7a3.57,3.57,0,0,1-3.57-3.57h0a3.57,3.57,0,0,1,3.57-3.57h19.7a3.57,3.57,0,0,1,3.57,3.57h0A3.57,3.57,0,0,1,180.24,242.09Z" style="fill: rgb(69, 90, 100); transform-origin: 170.39px 238.52px;" id="elrgk7wiytcd" class="animable"></path><path d="M174.34,299.86h-13.8a3.57,3.57,0,0,1-3.57-3.57h0a3.57,3.57,0,0,1,3.57-3.57h13.8a3.57,3.57,0,0,1,3.58,3.57h0A3.57,3.57,0,0,1,174.34,299.86Z" style="fill: rgb(69, 90, 100); transform-origin: 167.445px 296.29px;" id="elstskdnz6ybn" class="animable"></path><path d="M198.86,261.35H160.54a3.57,3.57,0,0,1-3.57-3.57h0a3.57,3.57,0,0,1,3.57-3.57h38.32a3.57,3.57,0,0,1,3.57,3.57h0A3.57,3.57,0,0,1,198.86,261.35Z" style="fill: rgb(69, 90, 100); transform-origin: 179.7px 257.78px;" id="els0uvmsepni" class="animable"></path><path d="M192.14,280.61h-31.6A3.57,3.57,0,0,1,157,277h0a3.57,3.57,0,0,1,3.57-3.58h31.6a3.57,3.57,0,0,1,3.57,3.58h0A3.57,3.57,0,0,1,192.14,280.61Z" style="fill: rgb(69, 90, 100); transform-origin: 176.37px 277.015px;" id="elf0eae0j9mg" class="animable"></path><circle cx="235.97" cy="182.38" r="3.63" style="fill: rgb(38, 50, 56); transform-origin: 235.97px 182.38px;" id="el3ohu0kl0f0t" class="animable"></circle><path d="M239.6,201a3.63,3.63,0,1,1-3.63-3.63A3.63,3.63,0,0,1,239.6,201Z" style="fill: rgb(38, 50, 56); transform-origin: 235.97px 201px;" id="elr9xnuztmqrn" class="animable"></path><circle cx="235.97" cy="220.39" r="3.63" style="fill: rgb(38, 50, 56); transform-origin: 235.97px 220.39px;" id="elao9um6spn3j" class="animable"></circle><path d="M239.6,239.76a3.63,3.63,0,1,1-3.63-3.62A3.62,3.62,0,0,1,239.6,239.76Z" style="fill: rgb(38, 50, 56); transform-origin: 235.97px 239.77px;" id="ellmj9f7ahr8d" class="animable"></path><circle cx="235.97" cy="259.14" r="3.63" style="fill: rgb(38, 50, 56); transform-origin: 235.97px 259.14px;" id="elxfhh0nu68qb" class="animable"></circle><path d="M239.6,278.51a3.63,3.63,0,1,1-3.63-3.63A3.62,3.62,0,0,1,239.6,278.51Z" style="fill: rgb(38, 50, 56); transform-origin: 235.97px 278.51px;" id="el1ungpz859lc" class="animable"></path><circle cx="235.97" cy="297.88" r="3.63" style="fill: rgb(38, 50, 56); transform-origin: 235.97px 297.88px;" id="el475dqjn4nm2" class="animable"></circle><path d="M239.6,317.25a3.63,3.63,0,1,1-3.63-3.63A3.63,3.63,0,0,1,239.6,317.25Z" style="fill: rgb(38, 50, 56); transform-origin: 235.97px 317.25px;" id="elelsh21f4kmi" class="animable"></path><circle cx="235.97" cy="336.62" r="3.63" style="fill: rgb(38, 50, 56); transform-origin: 235.97px 336.62px;" id="elp7xdi03j8p" class="animable"></circle><path d="M239.6,356a3.63,3.63,0,1,1-3.63-3.63A3.62,3.62,0,0,1,239.6,356Z" style="fill: rgb(38, 50, 56); transform-origin: 235.97px 356px;" id="ellwoihz0uy39" class="animable"></path><circle cx="235.97" cy="375.37" r="3.63" style="fill: rgb(38, 50, 56); transform-origin: 235.97px 375.37px;" id="el5255uplo51b" class="animable"></circle><path d="M239.6,394.74a3.63,3.63,0,1,1-3.63-3.63A3.63,3.63,0,0,1,239.6,394.74Z" style="fill: rgb(38, 50, 56); transform-origin: 235.97px 394.74px;" id="elf9pspaewr95" class="animable"></path><g id="el0c10ubv8arz"><g style="opacity: 0.2; transform-origin: 446.19px 276.31px;" class="animable"><rect x="441.68" y="132.09" width="9.02" height="288.44" id="eli6ulst78ai" class="animable" style="transform-origin: 446.19px 276.31px;"></rect></g></g><path d="M450.68,132.09h157.5a7.68,7.68,0,0,1,7.68,7.68V414.31a6.22,6.22,0,0,1-6.22,6.22h-159a0,0,0,0,1,0,0V132.09A0,0,0,0,1,450.68,132.09Z" style="fill: rgb(255, 255, 255); transform-origin: 533.25px 276.31px;" id="el5vz06go3hsg" class="animable"></path><rect x="450.65" y="180.52" width="154.83" height="111.79" style="fill: rgb(186, 104, 200); transform-origin: 528.065px 236.415px;" id="elfynmreix3uf" class="animable"></rect><path d="M585.38,326.64c0,.15-13,.26-29.08.26s-29.09-.11-29.09-.26,13-.26,29.09-.26S585.38,326.5,585.38,326.64Z" style="fill: rgb(38, 50, 56); transform-origin: 556.295px 326.64px;" id="elaplbg3bklmb" class="animable"></path><path d="M598.28,341.41c0,.14-18.8.26-42,.26s-42-.12-42-.26,18.79-.26,42-.26S598.28,341.26,598.28,341.41Z" style="fill: rgb(38, 50, 56); transform-origin: 556.28px 341.41px;" id="elkazo8usiuq" class="animable"></path><path d="M598.28,353c0,.14-18.8.26-42,.26s-42-.12-42-.26,18.79-.26,42-.26S598.28,352.81,598.28,353Z" style="fill: rgb(38, 50, 56); transform-origin: 556.28px 353px;" id="elrnthmx43kaf" class="animable"></path><path d="M598.28,364.49c0,.15-18.8.26-42,.26s-42-.11-42-.26,18.79-.26,42-.26S598.28,364.35,598.28,364.49Z" style="fill: rgb(38, 50, 56); transform-origin: 556.28px 364.49px;" id="elsemrj94y84b" class="animable"></path><path d="M575.31,400.54h-38a9.62,9.62,0,0,1-9.62-9.62h0a9.62,9.62,0,0,1,9.62-9.62h38a9.62,9.62,0,0,1,9.62,9.62h0A9.61,9.61,0,0,1,575.31,400.54Z" style="fill: rgb(186, 104, 200); transform-origin: 556.31px 390.92px;" id="elxtgfznamtg" class="animable"></path><path d="M484.83,326.64a6.3,6.3,0,0,1-1.34.1l-3.66.09c-3.09,0-7.36.07-12.07.07s-9,0-12.08-.07l-3.66-.09a6.3,6.3,0,0,1-1.34-.1,7.27,7.27,0,0,1,1.34-.1l3.66-.08c3.09,0,7.36-.08,12.08-.08s9,0,12.07.08l3.66.08A7.27,7.27,0,0,1,484.83,326.64Z" style="fill: rgb(38, 50, 56); transform-origin: 467.755px 326.64px;" id="elxccsrflqt9k" class="animable"></path><path d="M497.73,341.41a1.87,1.87,0,0,1-.48,0l-1.37.05-5,.08c-4.26.05-10.14.08-16.63.08s-12.38,0-16.64-.08l-5-.08-1.37-.05a1.87,1.87,0,0,1-.48,0,1.58,1.58,0,0,1,.48-.06l1.37,0,5-.09c4.26,0,10.14-.07,16.64-.07s12.37,0,16.63.07l5,.09,1.37,0A1.58,1.58,0,0,1,497.73,341.41Z" style="fill: rgb(38, 50, 56); transform-origin: 474.245px 341.405px;" id="elnjzfva7q9s" class="animable"></path><path d="M497.73,353a1.44,1.44,0,0,1-.48.05l-1.37.05-5,.08c-4.26.05-10.14.08-16.63.08s-12.38,0-16.64-.08l-5-.08-1.37-.05a.24.24,0,1,1,0-.1l1.37,0,5-.08c4.26,0,10.14-.08,16.64-.08s12.37,0,16.63.08l5,.08,1.37,0A1.44,1.44,0,0,1,497.73,353Z" style="fill: rgb(38, 50, 56); transform-origin: 474.248px 353.01px;" id="el5fed3rmop9n" class="animable"></path><path d="M497.73,364.49a1.44,1.44,0,0,1-.48.05l-1.37,0-5,.09c-4.26,0-10.14.07-16.63.07s-12.38,0-16.64-.07l-5-.09-1.37,0a1.44,1.44,0,0,1-.48-.05,1.87,1.87,0,0,1,.48-.05l1.37-.05,5-.08c4.26-.05,10.14-.08,16.64-.08s12.37,0,16.63.08l5,.08,1.37.05A1.87,1.87,0,0,1,497.73,364.49Z" style="fill: rgb(38, 50, 56); transform-origin: 474.245px 364.465px;" id="elud82gq6kni" class="animable"></path><path d="M475.06,381.3H450.68v19.24h24.38a9.62,9.62,0,0,0,0-19.24Z" style="fill: rgb(186, 104, 200); transform-origin: 467.68px 390.92px;" id="ellzyqbm0kdo" class="animable"></path><path d="M605.47,132.09h2.73a7.66,7.66,0,0,1,7.66,7.66V414a6.52,6.52,0,0,1-6.52,6.52h-3.87a0,0,0,0,1,0,0V132.09A0,0,0,0,1,605.47,132.09Z" style="fill: rgb(245, 245, 245); transform-origin: 610.665px 276.305px;" id="elh3pmn4vz3zi" class="animable"></path><path d="M610.67,179.76h0a5.19,5.19,0,0,1-5.2-5.19V147.26a5.19,5.19,0,0,1,5.2-5.19h0a5.19,5.19,0,0,1,5.19,5.19v27.31A5.19,5.19,0,0,1,610.67,179.76Z" style="fill: rgb(224, 224, 224); transform-origin: 610.665px 160.915px;" id="el0p3yvoon15b" class="animable"></path><path d="M577.39,166.44H526.25a12.44,12.44,0,0,1,0-24.87h51.14a12.44,12.44,0,0,1,0,24.87Zm-51.14-23.87a11.44,11.44,0,0,0,0,22.87h51.14a11.44,11.44,0,0,0,0-22.87Z" style="fill: rgb(224, 224, 224); transform-origin: 551.82px 154.005px;" id="elu1ukwgz49e" class="animable"></path><path d="M490,153.47c0,.15-8.9.26-19.87.26s-19.87-.11-19.87-.26,8.9-.26,19.87-.26S490,153.33,490,153.47Z" style="fill: rgb(224, 224, 224); transform-origin: 470.13px 153.47px;" id="el5ktuy8hy59f" class="animable"></path><path d="M575.93,153.47c0,.15-10.44.26-23.32.26s-23.33-.11-23.33-.26,10.44-.26,23.33-.26S575.93,153.33,575.93,153.47Z" style="fill: rgb(224, 224, 224); transform-origin: 552.605px 153.47px;" id="elj4dubmz232" class="animable"></path><ellipse cx="532.6" cy="216.28" rx="11.03" ry="11.38" style="fill: rgb(255, 255, 255); transform-origin: 532.6px 216.28px;" id="el3bvacybgdlh" class="animable"></ellipse><path d="M605.47,267.46l-.44-.32-1.26-1-4.83-3.78-17.72-14L569,238.71l-1.66-1.32a4.85,4.85,0,0,0-1.84-.89,4.76,4.76,0,0,0-4,.84c-2.2,1.95-4.47,4.07-6.79,6.18l-14.58,13.35c-1.28,1.15-2.52,2.32-3.85,3.49a5.21,5.21,0,0,1-5.22.83,5.61,5.61,0,0,1-2.22-1.61l-1.82-2-3.67-4L509,238l-6.84-7.43-3.31-3.6c-.54-.6-1.09-1.19-1.63-1.77a16.28,16.28,0,0,0-1.63-1.68,4.75,4.75,0,0,0-6.09.15c-.52.47-1,1.08-1.53,1.62l-5.86,6.4-10.53,11.49L456.3,259.8l-4.17,4.49-1.1,1.17a5.15,5.15,0,0,1-.38.38s.11-.15.34-.42.61-.68,1.06-1.2l4.1-4.56,15.16-16.73,10.48-11.53q2.83-3.1,5.84-6.42c.52-.55,1-1.11,1.56-1.66a5.26,5.26,0,0,1,2.09-1.13,5.17,5.17,0,0,1,4.61,1,18.24,18.24,0,0,1,1.69,1.72l1.63,1.77,3.32,3.59,6.84,7.42,14.39,15.61,3.67,4c.61.66,1.21,1.32,1.82,2a5,5,0,0,0,2,1.49A4.7,4.7,0,0,0,536,260c1.29-1.14,2.57-2.33,3.83-3.48l14.61-13.32c2.34-2.12,4.56-4.2,6.83-6.2a5.21,5.21,0,0,1,4.37-.9,5.27,5.27,0,0,1,2,1l1.66,1.32,12.17,9.73,17.61,14.12,4.77,3.86,1.24,1C605.34,267.33,605.47,267.46,605.47,267.46Z" style="fill: rgb(255, 255, 255); transform-origin: 528.06px 244.738px;" id="elxixkb0fy0a" class="animable"></path><path d="M608.29,421H143.5a8.08,8.08,0,0,1-8.07-8.07V139.66a8.08,8.08,0,0,1,8.07-8.07H608.29a8.08,8.08,0,0,1,8.07,8.07V413A8.08,8.08,0,0,1,608.29,421ZM143.5,132.59a7.08,7.08,0,0,0-7.07,7.07V413A7.08,7.08,0,0,0,143.5,420H608.29a7.08,7.08,0,0,0,7.07-7.07V139.66a7.08,7.08,0,0,0-7.07-7.07Z" style="fill: rgb(38, 50, 56); transform-origin: 375.895px 276.295px;" id="el2x0rp4xquu6" class="animable"></path><path d="M648.85,437.27c0,.15-123.25.26-275.26.26s-275.29-.11-275.29-.26S221.53,437,373.59,437,648.85,437.13,648.85,437.27Z" style="fill: rgb(38, 50, 56); transform-origin: 373.575px 437.265px;" id="elh00maytu39w" class="animable"></path></g><g id="freepik--Character--inject-2" class="animable animator-hidden" style="transform-origin: 400.425px 304.372px;"><g id="elmdj2nm0u0j"><g style="opacity: 0.2; transform-origin: 373.711px 289.541px;" class="animable"><path d="M357.7,420.48A80.07,80.07,0,0,0,385,375.87c2.69-12.36,2.41-25.32,6.14-37.4,3.1-10,8.81-19,13.1-28.54,9.39-21,11.77-44.52,10.3-67.44s-6.64-45.43-11.79-67.82c-1-4.24-2-8.67-4.94-11.91-5.91-6.6-17.68-5-23.34,1.77s-5.95,16.89-2.87,25.19c2.17,5.84,5.87,11.89,4,17.85-1.29,4.18-5.05,7.13-6.88,11.1-4.36,9.5,3.51,19.87,5.21,30.18,2.86,17.31-11.72,32.14-17.36,48.74-5.42,16-2.39,33.42-3.19,50.28-1.2,25.62-10.94,49-20.9,72.66Z" id="eld70haaklpd9" class="animable" style="transform-origin: 373.711px 289.541px;"></path></g></g><g id="elffayuatheb"><g style="opacity: 0.2; transform-origin: 415.964px 370.695px;" class="animable"><path d="M436.51,379.82c-.53-2.78-2.38-5.09-4.13-7.32a240.57,240.57,0,0,1-31.05-51.64l-6,15.63c-.56,16.41,12.9,30.15,15.26,46.39,1.85,12.77-3.62,25.78-8.7,37.65l15.72,0a31.4,31.4,0,0,0,7.71-8.45,101.32,101.32,0,0,0,10.49-25.41A16,16,0,0,0,436.51,379.82Z" id="elanzhdno3swr" class="animable" style="transform-origin: 415.964px 370.695px;"></path></g></g><path d="M407.86,444.19l18.36,2.14c-1.77,4.59-2.88,8.22-2.88,8.22a25.38,25.38,0,0,1-17.56-.41Z" style="fill: rgb(255, 190, 157); transform-origin: 416px 450.055px;" id="eldd11rbbtggv" class="animable"></path><path d="M334.73,440.41c-1.26,5.26-3.39,11.6-3.39,11.6l18,1.8c.43-2.65,3.09-8.68,4.22-12Z" style="fill: rgb(255, 190, 157); transform-origin: 342.45px 447.11px;" id="elfq1hgx4v1zs" class="animable"></path><path d="M402.1,154.12c-2.22-1.41-2.76-4.68-1.56-7a8.6,8.6,0,0,1,6.36-4.18,12.12,12.12,0,0,1,10.42,3.46c1.44,1.47,2.6,3.4,4.54,4.07,1.71.6,3.59.06,5.39.29a8.12,8.12,0,0,1,5.69,4.11,17.54,17.54,0,0,1,2,6.93c.26,2.21.43,4.63,2,6.24s3.85,1.91,5.71,3A7.82,7.82,0,0,1,445,181.73c-.73,1.07-1.79,2.05-1.88,3.35s.69,2.24,1.05,3.38a5.28,5.28,0,0,1-4.52,6.55c-1.54.09-3.19-.51-4.57.18s-1.88,2.34-2.76,3.59a6.59,6.59,0,0,1-8.05,2.08c-1.13-.55-2.2-1.47-3.46-1.39s-2.25,1.16-3.49,1.4c-1.62.32-3.16-.88-4.12-2.22s-1.63-2.91-2.87-4c-1.61-1.44-3.88-1.79-5.92-2.49a16.72,16.72,0,0,1-9.44-23.41" style="fill: rgb(38, 50, 56); transform-origin: 419.665px 172.132px;" id="ela434aecm6pp" class="animable"></path><path d="M425.59,183.14a4.52,4.52,0,0,1,1.8-1.18h-.14a2.66,2.66,0,0,1,.39-.07,1.79,1.79,0,0,1,1.4.18h0a3.33,3.33,0,0,1,1.82,1.58,4,4,0,0,1-.46,4.07,3,3,0,0,1-5.53-1A3.72,3.72,0,0,1,425.59,183.14Z" style="fill: rgb(69, 90, 100); transform-origin: 427.952px 185.504px;" id="elhatag6al3hr" class="animable"></path><path d="M396.29,206.75l-2.36-43.3a3.67,3.67,0,0,1,3.19-3.82l19.36-5.48c6.22-.84,10.59,6.73,11.17,13,.63,7,1.14,15.46.46,20.68-1.36,10.49-10,12.08-10,12.08s-.07,10.68,0,14.48l2.38,11.77Z" style="fill: rgb(255, 190, 157); transform-origin: 411.179px 190.123px;" id="elcoe7lsphy1" class="animable"></path><path d="M423.61,175.72a1.33,1.33,0,0,1-1.25,1.38,1.29,1.29,0,0,1-1.42-1.16,1.35,1.35,0,0,1,1.25-1.39A1.28,1.28,0,0,1,423.61,175.72Z" style="fill: rgb(38, 50, 56); transform-origin: 422.275px 175.825px;" id="el6yxjluw8y7" class="animable"></path><path d="M425.92,171.62c-.16.18-1.19-.54-2.64-.5s-2.47.8-2.63.62.08-.39.53-.74a3.7,3.7,0,0,1,2.1-.72,3.51,3.51,0,0,1,2.11.62C425.84,171.23,426,171.54,425.92,171.62Z" style="fill: rgb(38, 50, 56); transform-origin: 423.27px 171.023px;" id="el1imkxcl4qk8" class="animable"></path><path d="M409.5,175.72a1.34,1.34,0,0,1-1.25,1.38,1.29,1.29,0,0,1-1.42-1.16,1.35,1.35,0,0,1,1.25-1.39A1.29,1.29,0,0,1,409.5,175.72Z" style="fill: rgb(38, 50, 56); transform-origin: 408.165px 175.825px;" id="elq03ltrx5xz" class="animable"></path><path d="M411.76,172.29c-.16.18-1.2-.54-2.64-.5s-2.48.8-2.64.63.08-.4.53-.75a3.67,3.67,0,0,1,2.11-.71,3.53,3.53,0,0,1,2.11.61C411.68,171.9,411.84,172.21,411.76,172.29Z" style="fill: rgb(38, 50, 56); transform-origin: 409.105px 171.701px;" id="elpy7xs9cbhho" class="animable"></path><path d="M417.3,182.83a9.74,9.74,0,0,1,2.33-.49c.36,0,.71-.13.76-.38a1.84,1.84,0,0,0-.27-1.08c-.37-.89-.76-1.81-1.17-2.78-1.63-3.94-2.81-7.2-2.65-7.26a50.33,50.33,0,0,1,3.23,7c.39,1,.76,1.91,1.12,2.79a2.17,2.17,0,0,1,.23,1.44.91.91,0,0,1-.59.56,2.15,2.15,0,0,1-.62.1A8.87,8.87,0,0,1,417.3,182.83Z" style="fill: rgb(38, 50, 56); transform-origin: 418.601px 176.854px;" id="elemhfghaaz1b" class="animable"></path><path d="M418.15,199.9a25.08,25.08,0,0,1-13.47-3.37s3,7.77,13.45,6.5Z" style="fill: rgb(235, 153, 110); transform-origin: 411.415px 199.85px;" id="els314vf7uj1i" class="animable"></path><path d="M417.18,186.27a3.55,3.55,0,0,0-3-1.47,2.3,2.3,0,0,0-1.86,1.09,2.23,2.23,0,0,0,.1,2.33,2.2,2.2,0,0,0,2.36.77,5.32,5.32,0,0,0,2.09-1.37,1.81,1.81,0,0,0,.44-.55.74.74,0,0,0-.08-.73" style="fill: rgb(235, 153, 110); transform-origin: 414.705px 186.938px;" id="el7bknl7j78ir" class="animable"></path><path d="M413.08,184c.24,0,.28,1.55,1.65,2.62s3,.85,3,1.07-.36.31-1.06.35a3.9,3.9,0,0,1-2.55-.8,3.42,3.42,0,0,1-1.28-2.2C412.81,184.34,413,184,413.08,184Z" style="fill: rgb(38, 50, 56); transform-origin: 415.283px 186.022px;" id="elyzvdlkdq3aj" class="animable"></path><path d="M412.23,166.34c-.13.39-1.58.25-3.26.5s-3,.75-3.28.41c-.1-.17.12-.54.66-.94a5.55,5.55,0,0,1,2.41-.92,5.38,5.38,0,0,1,2.57.23C412,165.85,412.28,166.15,412.23,166.34Z" style="fill: rgb(38, 50, 56); transform-origin: 408.951px 166.346px;" id="el63vnzgvukv3" class="animable"></path><path d="M425.27,166.67c-.24.34-1.24,0-2.44,0s-2.2.29-2.44-.05c-.11-.16,0-.5.48-.82a3.39,3.39,0,0,1,2-.59,3.35,3.35,0,0,1,2,.6C425.23,166.18,425.38,166.51,425.27,166.67Z" style="fill: rgb(38, 50, 56); transform-origin: 422.828px 166.015px;" id="el4p1mhk6713" class="animable"></path><path d="M434.69,164.94a7.16,7.16,0,0,0-2.76-3.95,25.58,25.58,0,0,1-2.32-1.36c-1.51-1.22-1.86-3.34-2.79-5a7.94,7.94,0,0,0-6-4c-2.07-.21-4.2.41-6.22-.09-1.49-.38-2.79-1.35-4.3-1.64-2.94-.56-5.68,1.56-7.81,3.66,0,2.11,1.67,3.51,3.28,4.87a7.32,7.32,0,0,0,5.92,1.56c1.6-.3,3.37-1.11,4.76-.25s1.52,3.1,2.82,4.23c1.86,1.61,4.81.1,7.16.8,1.82.54,3,2.28,4.16,3.74s3,2.85,4.84,2.31A21.45,21.45,0,0,0,434.69,164.94Z" style="fill: rgb(38, 50, 56); transform-origin: 418.96px 159.374px;" id="elusqque9fxkb" class="animable"></path><path d="M412.59,156c-1.32-.38-4-1.24-4.72-2.38a8.09,8.09,0,0,0-7-4,6.66,6.66,0,0,0-6,5.26,9.59,9.59,0,0,0-8.23,5.3,10.16,10.16,0,0,0-.52,1.22,7.33,7.33,0,0,0-.49,6.12c.46,1.19,1.24,2.51.62,3.63s-2.2,1.18-3.42,1.6a4.84,4.84,0,0,0-3.05,5.4,6,6,0,0,1,.39,2.38,5.2,5.2,0,0,1-1.43,2.05,6,6,0,0,0,3.53,9.8A7.74,7.74,0,0,1,385,193c.93.57,1.34,1.69,2,2.57a4.92,4.92,0,0,0,6.75,1.19,3.74,3.74,0,0,0,3.3,1.46l-.38-22a1.81,1.81,0,0,0,1.33,1c3.54.8,4.05-6.49,3.26-8.46a20.57,20.57,0,0,0,3.55-3.73,14.79,14.79,0,0,0,1.63-7.15C407.74,158,413.17,156.2,412.59,156Z" style="fill: rgb(38, 50, 56); transform-origin: 394.97px 173.927px;" id="elgfgb1ze95rn" class="animable"></path><path d="M397.67,178c-.11-2.23-2.85-2.71-4.79-1.59-1.07.61-1.88,1.85-1.79,4.23.26,6.34,6.57,4.77,6.58,4.59S397.8,180.63,397.67,178Z" style="fill: rgb(255, 190, 157); transform-origin: 394.407px 180.68px;" id="elvcskh7jw8ns" class="animable"></path><path d="M395.63,182.9s-.1.09-.29.18a1.1,1.1,0,0,1-.82,0,2.75,2.75,0,0,1-1.37-2.4,3.55,3.55,0,0,1,.25-1.59,1.26,1.26,0,0,1,.79-.88.57.57,0,0,1,.67.27c.09.18.05.3.09.31s.13-.11.07-.37a.71.71,0,0,0-.27-.39.84.84,0,0,0-.62-.13,1.56,1.56,0,0,0-1.11,1,3.8,3.8,0,0,0-.31,1.78,2.86,2.86,0,0,0,1.73,2.67,1.17,1.17,0,0,0,1-.21C395.63,183.06,395.66,182.92,395.63,182.9Z" style="fill: rgb(235, 153, 110); transform-origin: 394.171px 180.636px;" id="eleln3i7zec0e" class="animable"></path><path d="M403.86,154.32a4,4,0,0,0-1.26,1.06,5.89,5.89,0,0,0-.47,4.39l0,.16-.16,0a6.11,6.11,0,0,0-4.08,3.59,4.57,4.57,0,0,0-.33,1.55,9.15,9.15,0,0,0,.2,1.68,12.61,12.61,0,0,1,.24,1.8,3,3,0,0,1-.5,1.87,7.67,7.67,0,0,1-3.15,2.36,10.86,10.86,0,0,0-2.94,1.93,7.91,7.91,0,0,0-2.37,5.31,8.25,8.25,0,0,0,.84,3.92c.42.86.77,1.28.74,1.3s-.11-.09-.28-.28a7.78,7.78,0,0,1-1.61-4.95,8.12,8.12,0,0,1,2.39-5.59,10.87,10.87,0,0,1,3-2,7.44,7.44,0,0,0,3-2.21c.7-1,.39-2.22.2-3.36a9.39,9.39,0,0,1-.19-1.76,5,5,0,0,1,.37-1.69,6.46,6.46,0,0,1,4.39-3.77l-.12.2a5.89,5.89,0,0,1,.64-4.56,2.71,2.71,0,0,1,1-.81Z" style="fill: rgb(69, 90, 100); transform-origin: 396.294px 169.781px;" id="eli2nl4jksllr" class="animable"></path><path d="M393.27,185.28a4.54,4.54,0,0,1,1.8-1.19h-.14a2.63,2.63,0,0,1,.39-.06,1.79,1.79,0,0,1,1.4.17h0a3.31,3.31,0,0,1,1.82,1.59,3.93,3.93,0,0,1-.46,4.06,3,3,0,0,1-5.53-1A3.72,3.72,0,0,1,393.27,185.28Z" style="fill: rgb(69, 90, 100); transform-origin: 395.637px 187.637px;" id="elsflcnf3y7km" class="animable"></path><path d="M461.39,218.64c-.21.32-5.86,6.82-5.86,6.82l-3.62,6v-7.67s-1.07-1.6-1.71.85-2.66,11.73-2.66,11.73l-2.14,7.14,8,6s3.2-3.63,4.8-5,5.43-3.41,6.71-3.52,6.82-2.45,6.82-3.2-1.06-1.06-2.56-.42-6.82,2.13-7.35,1.17,8.74-5.65,9.27-6.5.32-2-2.23-1.07-7.36,3.84-8.53,3.15,1-2.08,1.17-2.4,6.18-5.33,6-6.4-.32-2.13-1.71-1.17-7,7.35-8.2,6.71,1.06-3,1-3.51,4.1-6.08,4.1-7.25S461.39,218.64,461.39,218.64Z" style="fill: rgb(255, 190, 157); transform-origin: 458.565px 234.075px;" id="elha8crsmc8s" class="animable"></path><polygon points="453.4 249.45 441.22 260.86 436.03 249.45 445.4 243.48 453.4 249.45" style="fill: rgb(255, 190, 157); transform-origin: 444.715px 252.17px;" id="elibuvrt3qf0g" class="animable"></polygon><path d="M395.75,201c.65.33,12.95,10.17,12.95,10.17l11.44,7.43s6.69,34.36,5.72,40-7.12,25-7.77,24.87l-39.84-4.38,4.53-16.94L376,229.85s-1.3-9.43,3-13.9c4.47-4.65,14.46-10.61,14.46-10.61Z" style="fill: rgb(186, 104, 200); transform-origin: 400.886px 242.235px;" id="el2hiq1auaaat" class="animable"></path><path d="M418.36,217.49l.06,5.18-3.95,60.63h8.17s11.12-26.15,10.8-34.4c-.23-6-4.87-17.13-7.11-24.05a72.63,72.63,0,0,0-3.27-7.86c-1.73-1.55-2.07-1.85-2.07-2.2l.73-3.33-3.6-3.32,0,6.24Z" style="fill: rgb(186, 104, 200); transform-origin: 423.958px 245.72px;" id="ely42crvd20a" class="animable"></path><path d="M393.58,205.89a6,6,0,0,1,.83.92l2.12,2.62c1.78,2.24,4.23,5.37,7,8.9h-.41l.88-1.13c1.33-1.67,2.6-3.26,3.76-4.73l.12-.15.17.08c3,1.4,5.54,2.61,7.34,3.49.82.41,1.52.75,2.08,1a3.11,3.11,0,0,1,.73.42,3.4,3.4,0,0,1-.79-.28l-2.15-.91c-1.83-.8-4.41-1.95-7.41-3.32l.29-.07-3.73,4.76-.88,1.12-.21.26-.2-.26c-2.72-3.54-5.11-6.71-6.82-9-.8-1.09-1.47-2-2-2.73A6.68,6.68,0,0,1,393.58,205.89Z" style="fill: rgb(38, 50, 56); transform-origin: 405.89px 212.38px;" id="el278v7yzj9vv" class="animable"></path><path d="M424.69,452.67l0,1.2s20.46,7.93,20.72,11.79l-40.43.28.46-13.45A23.13,23.13,0,0,0,424.69,452.67Z" style="fill: rgb(186, 104, 200); transform-origin: 425.195px 459.215px;" id="elwwvnl8ib6l8" class="animable"></path><path d="M409.58,456.76a1.66,1.66,0,0,0-1.13,1.89,1.6,1.6,0,0,0,1.87,1.14,1.74,1.74,0,0,0,1.18-2,1.64,1.64,0,0,0-2.07-1" style="fill: rgb(255, 255, 255); transform-origin: 409.978px 458.264px;" id="elt7cntn8shm" class="animable"></path><path d="M405,465.94l.11-3.23,38.71.91s1.8.77,1.61,2Z" style="fill: rgb(38, 50, 56); transform-origin: 425.222px 464.325px;" id="ela50v92dsxgm" class="animable"></path><path d="M424.85,454c0,.2-1,.3-2,.94s-1.48,1.47-1.66,1.4.11-1.22,1.29-2S424.89,453.8,424.85,454Z" style="fill: rgb(38, 50, 56); transform-origin: 422.996px 455.073px;" id="elel66mt2ldjh" class="animable"></path><path d="M429.1,455.71c0,.19-.8.53-1.47,1.37s-.85,1.72-1.05,1.72-.33-1.13.52-2.15S429.1,455.52,429.1,455.71Z" style="fill: rgb(38, 50, 56); transform-origin: 427.766px 457.217px;" id="elatg85csyzl9" class="animable"></path><path d="M431.55,460.77c-.18,0-.46-.94,0-2s1.42-1.52,1.5-1.36-.48.75-.88,1.65S431.74,460.75,431.55,460.77Z" style="fill: rgb(38, 50, 56); transform-origin: 432.179px 459.074px;" id="eltgl533et3y" class="animable"></path><path d="M349.84,451.2l-.08,1.2s19.73,9.58,19.68,13.45l-40.32-3,1.57-13.38A23.12,23.12,0,0,0,349.84,451.2Z" style="fill: rgb(186, 104, 200); transform-origin: 349.28px 457.66px;" id="elm5ott043cem" class="animable"></path><path d="M334.44,454a1.66,1.66,0,0,0-1.28,1.79,1.59,1.59,0,0,0,1.77,1.29,1.73,1.73,0,0,0,1.34-1.91,1.64,1.64,0,0,0-2-1.13" style="fill: rgb(255, 255, 255); transform-origin: 334.718px 455.539px;" id="elpiks3snp5br" class="animable"></path><path d="M329.12,462.81l.38-3.22,38.5,4.1s1.74.91,1.44,2.16Z" style="fill: rgb(38, 50, 56); transform-origin: 349.297px 462.72px;" id="elmborbcvi5um" class="animable"></path><path d="M349.89,452.52c0,.2-1,.21-2,.77s-1.59,1.35-1.77,1.26.21-1.21,1.45-1.86S350,452.34,349.89,452.52Z" style="fill: rgb(38, 50, 56); transform-origin: 347.988px 453.424px;" id="el8ewxzq7i8bu" class="animable"></path><path d="M354,454.59c0,.19-.85.46-1.58,1.25s-1,1.64-1.19,1.62-.24-1.15.69-2.1S354,454.4,354,454.59Z" style="fill: rgb(38, 50, 56); transform-origin: 352.559px 455.977px;" id="el3ib46e0w9d6" class="animable"></path><path d="M356,459.83c-.19,0-.39-1,.2-2s1.54-1.4,1.61-1.23-.54.7-1,1.56S356.2,459.83,356,459.83Z" style="fill: rgb(38, 50, 56); transform-origin: 356.812px 458.196px;" id="elrc9yird767f" class="animable"></path><path d="M420.47,294.38s31.9,74.12,30.39,84.09-21.75,68.19-21.75,68.19L405,443.86l12.59-66.39-23.41-48,4-48.68,24.43,2.52Z" style="fill: rgb(38, 50, 56); transform-origin: 422.546px 363.725px;" id="elz8paiujyu4e" class="animable"></path><path d="M378.08,276.88,376,282.31c-3.91,5.18-10.34,15-12.31,20.95-2.8,8.44-1.24,35.05-1.24,35.05l-2.77,39.16s-7.64,15.24-11.73,23.8c-3.54,7.4-14.82,40.49-14.82,40.49l23.68,1.75s30.06-49.11,32.86-56.1,8.87-63.2,8.87-63.2l10.15-42.35Z" style="fill: rgb(38, 50, 56); transform-origin: 370.91px 360.195px;" id="elex6vox7smyh" class="animable"></path><path d="M408.71,284.73a.74.74,0,0,1,0,.26c0,.21-.05.46-.09.77-.09.72-.21,1.71-.38,3-.35,2.61-.86,6.32-1.49,10.88-.32,2.3-.68,4.81-1.06,7.5-.1.68-.2,1.37-.31,2.07a17.55,17.55,0,0,1-.55,2.1,16,16,0,0,1-2.07,4,25,25,0,0,0-2.45,4,16.29,16.29,0,0,0-1.25,4.65c-.4,3.31-.81,6.73-1.23,10.24-1.71,14-3.25,26.73-4.37,36L392.07,381c-.17,1.26-.3,2.24-.4,3-.05.31-.09.57-.12.77a1,1,0,0,1-.06.26s0-.09,0-.27,0-.46.07-.77q.1-1.08.3-3c.29-2.62.71-6.34,1.22-10.91,1.08-9.24,2.57-21.94,4.21-36,.42-3.51.84-6.94,1.24-10.25a16.51,16.51,0,0,1,1.31-4.79,26.08,26.08,0,0,1,2.5-4,15.24,15.24,0,0,0,2-3.89,17.74,17.74,0,0,0,.56-2c.1-.69.21-1.37.32-2,.4-2.7.77-5.21,1.12-7.5.69-4.55,1.26-8.25,1.65-10.85.21-1.25.36-2.24.48-2.95.06-.31.1-.56.14-.77S408.7,284.72,408.71,284.73Z" style="fill: rgb(69, 90, 100); transform-origin: 400.106px 334.88px;" id="el5s2lw1zca2n" class="animable"></path><path d="M420.37,281.55a3.19,3.19,0,0,1,.24-.64c.2-.46.47-1.05.79-1.79s.76-1.72,1.22-2.84l.73-1.78.74-2a56.91,56.91,0,0,0,3.5-23.2,71.89,71.89,0,0,0-2.22-12.8A102.53,102.53,0,0,0,422,226.39c-.56-1.4-1.08-2.67-1.53-3.79s-.92-2-1.27-2.82l-.79-1.79a3.19,3.19,0,0,1-.24-.64,3.94,3.94,0,0,1,.33.59l.88,1.75,1.35,2.79,1.62,3.77a98.39,98.39,0,0,1,3.51,10.1,70.44,70.44,0,0,1,2.27,12.89,55.36,55.36,0,0,1-3.67,23.35c-.28.71-.53,1.39-.78,2s-.53,1.22-.78,1.77c-.47,1.11-.9,2.06-1.29,2.82s-.66,1.3-.88,1.74A4.26,4.26,0,0,1,420.37,281.55Z" style="fill: rgb(38, 50, 56); transform-origin: 423.199px 249.45px;" id="elfbbs4m1iz6" class="animable"></path><path d="M397,220.21c.43.77,15.62,35,15.62,35l28.72-10.16,7.53,13.3s-32.49,21.37-41.09,20.79-10.07-2.18-13.24-8.92c-3.9-8.27-15.71-38.67-15.71-38.67s-3.72-16.79,7.59-17.93C393.5,212.9,397,220.21,397,220.21Z" style="fill: rgb(186, 104, 200); transform-origin: 413.557px 246.361px;" id="el73vzj6kugii" class="animable"></path><path d="M397,220.21c.43.77,15.62,35,15.62,35l28.72-10.16,7.53,13.3s-32.49,21.37-41.09,20.79-10.07-2.18-13.24-8.92c-3.9-8.27-15.71-38.67-15.71-38.67s-4.3-16.79,7.59-17.93C393.5,212.94,397,220.21,397,220.21Z" style="fill: rgb(186, 104, 200); transform-origin: 413.471px 246.363px;" id="ellk24qrf5en" class="animable"></path><path d="M397,220.21l-.33-.54a15.84,15.84,0,0,0-1.05-1.5,14.9,14.9,0,0,0-2.07-2.14,10.21,10.21,0,0,0-3.53-1.94,9.2,9.2,0,0,0-5-.11,7.76,7.76,0,0,0-4.85,3.24,13,13,0,0,0-1.9,6.56,28.43,28.43,0,0,0,.73,7.72v0c3.65,9.28,8,20.25,13,32.25,1.27,3,2.54,6.07,4.13,9.06a11.47,11.47,0,0,0,3.08,3.92,10.76,10.76,0,0,0,4.76,1.76c.86.14,1.74.24,2.62.32a10.37,10.37,0,0,0,2.61,0,24.61,24.61,0,0,0,5.14-1.48,100.89,100.89,0,0,0,10-4.66c8.69-4.61,16.83-9.61,24.45-14.53l-.09.33-7.52-13.3.29.11L412.7,255.4l-.17.06-.07-.17-11.35-25.62-3.06-7c-.34-.79-.6-1.4-.79-1.83s-.25-.63-.25-.63.11.2.3.6l.84,1.81c.73,1.61,1.79,3.95,3.16,6.95l11.5,25.56-.24-.1,28.7-10.2.19-.07.1.18,7.54,13.29.12.2-.2.13c-7.62,4.94-15.77,9.95-24.48,14.57a99,99,0,0,1-10,4.69,25,25,0,0,1-5.25,1.5,8,8,0,0,1-1.39.08c-.45,0-.89-.07-1.34-.1-.89-.08-1.77-.18-2.65-.33a11.34,11.34,0,0,1-5-1.85,12,12,0,0,1-3.22-4.1c-1.6-3-2.87-6.11-4.14-9.1-5-12-9.25-23-12.87-32.3v0h0a28.14,28.14,0,0,1-.71-7.84,13.35,13.35,0,0,1,2-6.71,8,8,0,0,1,5-3.32,9.66,9.66,0,0,1,5.12.15,10.28,10.28,0,0,1,3.56,2,14.12,14.12,0,0,1,2,2.19A10.57,10.57,0,0,1,397,220.21Z" style="fill: rgb(38, 50, 56); transform-origin: 413.577px 246.439px;" id="elakifs4e5i5" class="animable"></path><path d="M405.07,284.13a2.77,2.77,0,0,0-1.53.18,1.49,1.49,0,0,0-.84,1.24,1.6,1.6,0,0,0,.87,1.55,1.56,1.56,0,0,0,1.72-.41,1.32,1.32,0,0,0,.23-1.44c-.37-.9-1.11-1-1.07-1.07s.17-.06.46,0a1.78,1.78,0,0,1,.95.87,1.73,1.73,0,0,1-.21,1.92,2,2,0,0,1-2.29.57,2.07,2.07,0,0,1-1.14-2.07,1.85,1.85,0,0,1,1.16-1.53,2,2,0,0,1,1.28-.09C405,284,405.08,284.11,405.07,284.13Z" style="fill: rgb(69, 90, 100); transform-origin: 404.133px 285.736px;" id="ele5jacfzv56e" class="animable"></path><path d="M370.84,292.28c0-.1,1.37.28,3.6.44a22.75,22.75,0,0,0,3.92-.06,25.47,25.47,0,0,0,4.68-1,25.76,25.76,0,0,0,4.39-1.89,22.4,22.4,0,0,0,3.24-2.2c1.73-1.41,2.62-2.49,2.7-2.42a3.6,3.6,0,0,1-.58.79,9,9,0,0,1-.77.86,14.52,14.52,0,0,1-1.11,1.06,21.29,21.29,0,0,1-3.24,2.32,23.55,23.55,0,0,1-4.47,2,24.16,24.16,0,0,1-4.8.94,20.79,20.79,0,0,1-4-.05c-.57,0-1.07-.16-1.51-.23a8.75,8.75,0,0,1-1.13-.26A4.14,4.14,0,0,1,370.84,292.28Z" style="fill: rgb(69, 90, 100); transform-origin: 382.105px 289.17px;" id="el0pn6480a0m6g" class="animable"></path><path d="M418,379.42a22.2,22.2,0,0,1,11.16-4.71c0,.15-2.63.75-5.71,2.06S418.06,379.55,418,379.42Z" style="fill: rgb(69, 90, 100); transform-origin: 423.58px 377.069px;" id="elp2fs32lb718" class="animable"></path><path d="M360.23,377.31a7.69,7.69,0,0,1,3.36,1.08,7.45,7.45,0,0,1,2.84,2.12,34.41,34.41,0,0,1-3.08-1.65A30.34,30.34,0,0,1,360.23,377.31Z" style="fill: rgb(69, 90, 100); transform-origin: 363.33px 378.91px;" id="ela3zxurrytl" class="animable"></path><path d="M425,221.4a4.5,4.5,0,0,1,.6.93c.36.61.83,1.53,1.39,2.67a64.09,64.09,0,0,1,3.52,9.3,53.9,53.9,0,0,1,2,9.74,28.48,28.48,0,0,1,.14,3,5.41,5.41,0,0,1-.09,1.1c-.09,0-.08-1.57-.42-4.07a66.43,66.43,0,0,0-2.12-9.64,81.53,81.53,0,0,0-3.36-9.28C425.68,222.84,425,221.44,425,221.4Z" style="fill: rgb(38, 50, 56); transform-origin: 428.826px 234.77px;" id="elw595ekikhle" class="animable"></path><path d="M420.69,215.58a21.16,21.16,0,0,1,.79-4.18l.48.16c-.16.37-.33.77-.52,1.16a14.83,14.83,0,0,1-3.1,4.58c-.14-.09,1.33-2.08,2.63-4.8l.52-1.14.48.16A20.47,20.47,0,0,1,420.69,215.58Z" style="fill: rgb(38, 50, 56); transform-origin: 420.15px 214.33px;" id="elx8fipw0xle" class="animable"></path></g><defs>     <filter id="active" height="200%">         <feMorphology in="SourceAlpha" result="DILATED" operator="dilate" radius="2"></feMorphology>                <feFlood flood-color="#32DFEC" flood-opacity="1" result="PINK"></feFlood>        <feComposite in="PINK" in2="DILATED" operator="in" result="OUTLINE"></feComposite>        <feMerge>            <feMergeNode in="OUTLINE"></feMergeNode>            <feMergeNode in="SourceGraphic"></feMergeNode>        </feMerge>    </filter>    <filter id="hover" height="200%">        <feMorphology in="SourceAlpha" result="DILATED" operator="dilate" radius="2"></feMorphology>                <feFlood flood-color="#ff0000" flood-opacity="0.5" result="PINK"></feFlood>        <feComposite in="PINK" in2="DILATED" operator="in" result="OUTLINE"></feComposite>        <feMerge>            <feMergeNode in="OUTLINE"></feMergeNode>            <feMergeNode in="SourceGraphic"></feMergeNode>        </feMerge>            <feColorMatrix type="matrix" values="0   0   0   0   0                0   1   0   0   0                0   0   0   0   0                0   0   0   1   0 "></feColorMatrix>    </filter></defs></svg>